<?xml version="1.0" encoding="UTF-8"?>
<svg xmlns="http://www.w3.org/2000/svg" version="1.1" viewBox="0 0 261.97 57.84">
  <defs>
    <style>
      .cls-1, .cls-2 {
        fill: #010101;
      }

      .cls-3 {
        fill: #231f20;
      }

      .cls-2 {
        fill-rule: evenodd;
      }

      .cls-4 {
        fill: #ed1c24;
      }

      .cls-5 {
        fill: #b72926;
        stroke: #010101;
        stroke-width: 1.14px;
      }

      .cls-5, .cls-6 {
        stroke-miterlimit: 10;
      }

      .cls-6 {
        fill: none;
        stroke: #fff;
        stroke-width: 2.28px;
      }
    </style>
  </defs>
  <!-- Generator: Adobe Illustrator 28.7.2, SVG Export Plug-In . SVG Version: 1.2.0 Build 154)  -->
  <g>
    <g id="Layer_1">
      <line class="cls-6" x1="148.6" y1="47.15" x2="142.4" y2="53.37"/>
      <line class="cls-6" x1="142.39" y1="47.16" x2="148.61" y2="53.36"/>
      <line class="cls-5" x1="148.29" y1="47.46" x2="142.71" y2="53.06"/>
      <line class="cls-5" x1="142.69" y1="47.47" x2="148.3" y2="53.05"/>
      <g>
        <path class="cls-3" d="M140.21,54h0s0-.01-.02-.03c-.01-.02-.03-.04-.05-.07-.03-.05-.07-.1-.07-.1,0-.08.02-.21.04-.29.08,0,.26-.04.33-.23.03-.09.03-.22.02-.35,0-.06-.01-.12-.02-.18,0-.05,0-.09-.01-.12-.1.06-.46.32-.52.5-.04.1-.02.18.01.24.03.06.09.1.12.12-.02.04-.04.1-.06.15,0,0-.02-.04-.05-.09-.03-.05-.07-.12-.11-.2-.04-.07-.08-.15-.1-.2-.01-.03-.03-.05-.03-.07,0-.02-.01-.03-.01-.03h0s-.1-.22-.1-.22c.01-.08.06-.21.09-.28.08.01.26,0,.36-.18.04-.08.07-.21.08-.33,0-.07,0-.13.01-.19,0-.05,0-.1,0-.13-.11.05-.5.24-.6.41-.02.04-.03.07-.04.11-.02.13.06.23.11.27-.02.04-.05.09-.09.14,0,0,0-.02-.02-.06-.01-.03-.03-.08-.05-.13-.03-.09-.06-.19-.06-.19,0,0-.01-.04-.03-.07-.01-.04-.02-.08-.02-.08h0s-.07-.23-.07-.23c.02-.08.09-.19.14-.27.08.02.26.04.38-.12.05-.07.1-.21.13-.33.03-.12.05-.24.06-.29-.11.03-.53.16-.65.31-.13.16-.04.32.01.38-.03.04-.07.08-.11.13,0,0,0-.04-.02-.1-.02-.06-.03-.14-.04-.22-.01-.08-.03-.16-.04-.22,0-.06-.01-.1-.01-.1h0s0-.06-.02-.12c0-.03,0-.06,0-.08,0-.02,0-.04,0-.04.04-.07.12-.18.17-.24.08.04.25.08.4-.06.07-.06.13-.18.17-.29.06-.12.1-.24.11-.29-.12.01-.55.07-.69.2-.03.03-.06.06-.07.09-.06.12,0,.23.02.29-.04.03-.08.07-.13.11,0,0,0-.02,0-.06,0-.04,0-.09,0-.14,0-.1,0-.2,0-.2v-.16s0-.06,0-.12c0-.06,0-.12,0-.12.05-.07.14-.16.21-.21.07.05.24.12.4,0,.08-.05.16-.16.22-.27.07-.11.12-.21.15-.26-.12,0-.55,0-.72.1-.09.06-.12.13-.13.2,0,.07,0,.13.02.17-.04.03-.09.06-.14.09,0,0,0-.04,0-.1,0-.06.02-.14.03-.23,0-.08.02-.16.04-.22.01-.06.02-.1.02-.1h0s0-.01,0-.04c0-.02,0-.05.02-.08.01-.06.03-.12.03-.12.06-.06.16-.13.24-.18.06.06.21.15.39.07.04-.02.08-.05.13-.09.04-.04.08-.08.13-.13.09-.1.16-.2.2-.24-.06-.01-.19-.04-.34-.05-.14-.01-.3,0-.38.03-.04.02-.07.04-.1.06-.05.05-.07.1-.07.15,0,.05,0,.1,0,.13-.04.02-.1.04-.16.06,0,0,.03-.1.05-.19.01-.05.03-.1.04-.13.01-.04.02-.06.02-.06l.05-.15s0-.01.01-.03c0,0,0-.01,0-.02,0,0,0,0,0-.01,0-.02.01-.03.02-.05.02-.06.04-.11.04-.11.07-.05.18-.11.26-.14.05.07.18.18.38.13.18-.05.44-.32.51-.39-.11-.04-.53-.18-.71-.13-.1.03-.16.09-.19.15-.03.06-.03.13-.03.17-.05.01-.1.03-.16.04,0,0,.02-.04.04-.09.03-.06.06-.13.09-.21.04-.07.07-.15.1-.2.03-.06.05-.09.05-.09l.12-.21c.07-.04.2-.07.28-.09.04.07.15.21.35.19.09-.01.2-.07.31-.13.06-.04.11-.07.16-.1.05-.03.08-.06.1-.07-.1-.06-.49-.26-.68-.25-.04,0-.08.02-.11.03-.12.06-.15.18-.15.25-.05,0-.11,0-.16.01,0,0,.01-.02.03-.05.02-.03.05-.07.07-.11.06-.08.11-.16.11-.16,0,0,.02-.03.05-.06.02-.03.05-.06.05-.06l.07-.08h0s.08-.11.08-.11c.08-.03.21-.04.29-.05.03.08.12.23.32.24.09,0,.22-.04.34-.09.12-.05.23-.1.27-.12-.09-.07-.44-.33-.64-.34-.11,0-.18.04-.22.09-.05.05-.07.11-.08.15-.05,0-.11,0-.17-.01,0,0,.03-.03.07-.08.04-.05.1-.11.16-.17.03-.03.06-.06.08-.09.03-.03.05-.05.08-.07.04-.04.08-.07.08-.07,0,0,.04-.04.09-.08.05-.04.09-.08.09-.08.08-.01.21-.01.3,0,.02.08.08.25.28.29.04,0,.1,0,.15,0,.06,0,.12-.02.18-.03.07-.01.13-.03.18-.05.05-.02.1-.03.12-.03-.08-.09-.38-.4-.57-.44-.04,0-.08-.01-.12,0-.03,0-.06.02-.09.03-.02.01-.05.03-.06.05-.04.04-.06.08-.07.11-.05-.01-.1-.02-.16-.04,0,0,.08-.06.16-.12.08-.06.16-.12.16-.12l.13-.09h0s.01,0,.03-.02c0,0,.02-.01.03-.02,0,0,0,0,0,0,0,0,.01,0,.02,0,0,0,0,0,0,0h0s0,0,.01,0c.05-.03.1-.06.1-.06.08,0,.21.02.29.04,0,.08.04.26.23.33.09.03.22.03.35.02.06,0,.12-.01.17-.02.05,0,.09-.01.12-.01-.06-.1-.32-.46-.5-.52-.1-.04-.18-.02-.24.01-.06.03-.1.09-.12.12-.04-.02-.1-.04-.15-.06,0,0,.04-.02.09-.05.05-.03.12-.07.2-.11.04-.02.38-.2.66-.35.06.07.19.18.38.1.18-.07.44-.42.51-.52-.11-.02-.55-.09-.73-.02-.22.09-.2.3-.19.37-.14.06-.27.11-.32.13-.08.03-.39.14-.39.14,0-.06.02-.12.03-.16.04,0,.11,0,.17-.04.07-.03.13-.08.17-.19.03-.09.03-.25.02-.39-.01-.15-.03-.28-.04-.34-.03.02-.07.05-.13.09-.05.04-.11.09-.17.15-.12.11-.23.24-.26.33-.07.21.08.32.15.37-.01.04-.04.09-.06.14-.02.05-.04.1-.06.14,0,0-.03.01-.07.04-.04.02-.09.05-.14.08-.1.07-.2.13-.2.13h0s-.01,0-.04.02c-.02.01-.05.03-.08.05-.06.04-.11.08-.11.08l-.05.04s0-.07,0-.1c0-.02,0-.05,0-.07.04,0,.11-.02.17-.06.06-.04.12-.1.14-.21.04-.19-.09-.61-.13-.73-.02.02-.07.06-.11.11-.05.05-.1.11-.15.17-.1.12-.19.27-.2.37,0,.01,0,.02,0,.03-.01.19.13.28.21.31-.02.08-.04.22-.07.3,0,0-.03.02-.07.06-.04.03-.1.08-.16.13-.06.05-.11.1-.15.13-.04.04-.07.06-.07.06h0s-.06.06-.12.12c-.03.03-.06.06-.08.08-.02.02-.04.04-.04.04-.01-.06-.02-.12-.02-.17.04-.01.1-.04.16-.09.05-.05.09-.12.1-.23,0-.19-.19-.59-.25-.7-.04.05-.13.18-.21.32-.08.14-.14.29-.14.4,0,.22.17.29.26.31,0,.09,0,.22-.02.3,0,0-.02.02-.05.06-.03.03-.07.08-.11.13-.04.05-.08.09-.11.13-.03.04-.05.06-.05.06h0s-.04.05-.08.11c-.02.03-.04.05-.06.08-.01.02-.02.03-.02.03l-.03.05s-.02-.06-.03-.1c0-.02-.01-.05-.02-.07.04-.02.1-.05.14-.11.05-.06.08-.14.07-.25-.02-.19-.28-.56-.35-.65-.03.06-.11.19-.16.34-.05.15-.1.31-.08.41,0,.01,0,.02,0,.03.05.19.21.22.29.23.01.09.02.22.02.31,0,0-.08.12-.16.25-.07.13-.15.26-.15.26,0,0-.01.02-.03.05-.01.03-.03.06-.05.1-.04.07-.08.15-.08.15-.03-.05-.05-.11-.07-.15.03-.02.08-.07.12-.13.04-.06.06-.15.03-.25-.06-.19-.36-.5-.45-.59-.01.03-.03.08-.05.15-.02.06-.04.14-.05.22-.03.16-.04.32-.01.42.07.21.25.22.34.21.02.08.06.21.07.3,0,0-.01.03-.03.07-.02.04-.04.1-.07.15-.04.11-.09.22-.09.22h0s0,.02-.01.04c0,.02-.02.06-.03.09-.02.06-.04.13-.04.13l-.02.06s-.04-.06-.06-.08c-.01-.02-.03-.04-.04-.06.03-.03.07-.08.1-.15.02-.07.03-.15-.01-.25-.08-.18-.43-.44-.53-.51-.03.13-.09.61,0,.79,0,.01.01.02.02.03.1.16.27.15.35.13.03.08.09.2.12.28,0,0-.01.04-.03.09-.02.05-.03.13-.05.2-.02.07-.03.14-.05.2,0,.05-.02.09-.02.09h0s-.01.08-.03.16c-.02.08-.02.16-.02.16-.04-.04-.09-.09-.12-.12.03-.03.06-.09.07-.16.01-.07,0-.16-.06-.25-.11-.16-.5-.37-.61-.42,0,.07,0,.22.01.38.02.16.06.32.12.4.13.18.31.13.39.1.05.07.13.19.16.26,0,0,0,.03,0,.07,0,.05,0,.11-.01.17,0,.06,0,.12-.01.17,0,.05,0,.08,0,.08h0s0,.27,0,.27v.06s-.05-.04-.08-.06c-.02-.02-.04-.03-.05-.04.02-.04.05-.1.05-.17,0-.07-.02-.15-.09-.24-.13-.15-.55-.29-.66-.32,0,.07.03.22.07.37.04.15.11.31.18.38,0,0,.02.02.02.02.15.12.3.06.37.02.06.07.15.17.2.24,0,0,0,.04,0,.09,0,.05.01.13.02.2,0,.07.01.15.02.2,0,.06.01.09.01.09h0s.01.08.02.16c.01.08.03.16.03.16-.05-.03-.11-.06-.15-.08.02-.08.07-.26-.11-.4-.15-.12-.59-.19-.71-.21.02.06.06.21.13.36.07.15.15.29.24.35.18.13.33.03.4-.02.07.06.18.14.23.2,0,0,.03.12.05.23.01.06.03.12.04.16.01.04.02.07.02.07,0,0,.02.07.04.13,0,.03.02.07.03.09,0,.02.01.04.01.04l.02.06s-.06-.02-.09-.03c-.02,0-.04-.02-.06-.03,0-.04.01-.11,0-.18-.02-.07-.07-.14-.16-.2-.17-.1-.61-.11-.73-.1.03.06.09.2.18.33.09.13.19.26.29.31.01,0,.02.01.03.01.18.07.31-.04.36-.1.08.04.19.11.26.16,0,0,.05.14.11.28.03.07.06.14.08.19.02.05.04.08.04.08h0s0,.02.02.05c.01.03.03.07.05.1.04.07.08.15.08.15-.06,0-.12-.02-.17-.03,0-.04,0-.11-.04-.17-.03-.07-.08-.13-.19-.17-.09-.03-.25-.03-.39-.02-.15.01-.29.03-.34.04.02.03.05.07.09.13.04.05.09.11.15.17.11.12.24.23.33.26.21.07.33-.08.37-.15.04.01.09.03.14.06.05.02.1.04.14.06,0,0,.01.03.04.07.02.04.05.09.09.14.06.1.13.2.13.2,0,0,0,.01.02.04.02.02.03.05.05.08.04.06.08.11.08.11l.13-.1-.09-.13Z"/>
        <path class="cls-3" d="M150.59,54.27c-.06.08-.12.16-.12.16-.02-.06-.03-.12-.04-.16.03-.01.07-.03.11-.07.02-.02.04-.04.05-.06.01-.03.02-.05.03-.09,0-.03,0-.07,0-.12-.04-.19-.36-.49-.44-.57,0,.02-.02.07-.03.12-.01.05-.03.12-.05.18-.01.06-.02.12-.03.18,0,.06,0,.11,0,.15.04.2.21.26.29.28.01.09.01.21,0,.3,0,0-.04.05-.08.09-.04.05-.08.09-.08.09h0s-.03.03-.07.07c-.02.02-.05.05-.07.08-.03.03-.06.06-.09.08-.06.06-.12.12-.17.16-.05.04-.08.07-.08.07,0-.06,0-.12-.01-.17.04,0,.1-.03.15-.08.05-.05.09-.12.08-.22-.01-.19-.27-.55-.34-.63-.02.04-.07.15-.12.27-.05.12-.09.25-.09.34,0,.2.16.29.24.32,0,.08-.02.22-.05.29l-.19.15h0s-.03.02-.06.05c-.03.02-.06.05-.06.05,0,0-.08.06-.16.11-.04.03-.08.05-.11.08-.03.02-.05.03-.05.03,0-.06,0-.12.01-.17.06,0,.18-.04.25-.15.02-.03.03-.07.03-.11.02-.19-.19-.58-.25-.68-.02.02-.04.06-.07.1-.03.05-.06.1-.1.16-.06.1-.12.22-.13.31-.02.2.11.31.19.35-.02.08-.05.21-.09.28l-.21.12h0s-.03.02-.09.05c-.06.03-.13.07-.2.1-.07.04-.15.07-.21.1-.06.02-.09.04-.09.04.01-.06.03-.12.04-.16.04,0,.1,0,.17-.03.06-.03.12-.09.15-.19.05-.18-.09-.6-.13-.71-.02.02-.05.05-.08.09-.04.04-.08.08-.12.13-.08.1-.17.2-.19.3-.05.2.06.33.13.38-.03.08-.09.2-.14.26,0,0-.06.02-.11.04-.03.01-.06.02-.08.03-.02,0-.04.01-.04.01h0s-.15.05-.15.05c0,0-.02,0-.06.02-.03.01-.08.02-.13.04-.1.03-.19.05-.19.05.02-.06.04-.11.06-.16.03,0,.08.01.13,0,.05,0,.11-.03.15-.08.02-.02.05-.06.06-.1.04-.09.04-.24.03-.38-.01-.15-.04-.28-.05-.34-.04.03-.14.11-.24.2-.05.04-.09.08-.13.13-.04.04-.07.09-.09.13-.08.19.01.33.07.39-.04.08-.12.18-.17.24,0,0-.06.01-.12.03-.01,0-.02,0-.04,0-.41.05-1.12.09-1.12.09,0,0-.8-.02-1.18-.07,0,0-.01,0-.04,0-.02,0-.05,0-.08-.02-.06-.01-.12-.03-.12-.03-.06-.06-.13-.16-.17-.24.06-.06.15-.21.07-.39-.02-.04-.05-.08-.09-.13-.04-.04-.08-.08-.13-.13-.1-.09-.2-.16-.24-.2-.01.06-.04.19-.05.34-.01.14-.01.3.03.38.02.04.04.07.06.1.05.05.1.07.15.07.05,0,.1,0,.13,0,.02.04.04.1.06.16,0,0-.1-.03-.19-.05-.05-.01-.1-.03-.13-.04-.04-.01-.06-.02-.06-.02l-.15-.05h0s0,0-.02,0c0,0-.01,0-.02,0-.02,0-.05-.02-.07-.03-.06-.02-.11-.04-.11-.04-.05-.07-.11-.18-.14-.26.07-.05.18-.18.13-.38-.02-.09-.11-.19-.19-.3-.04-.05-.08-.09-.12-.13-.03-.04-.06-.07-.08-.09-.04.11-.18.53-.13.71.03.1.09.16.15.19.06.03.13.03.17.03.01.05.03.1.04.16,0,0-.04-.02-.09-.04-.06-.03-.13-.06-.21-.09-.07-.04-.15-.08-.2-.1-.06-.03-.09-.05-.09-.05h0s-.21-.12-.21-.12c-.04-.07-.07-.2-.09-.28.07-.04.21-.15.19-.35-.01-.09-.07-.2-.13-.31-.04-.06-.07-.11-.1-.16-.03-.05-.06-.08-.07-.1-.06.1-.26.49-.25.68,0,.04.02.08.03.11.06.12.18.15.24.15,0,.05,0,.11.01.17,0,0-.02-.01-.05-.03-.03-.02-.07-.04-.11-.07-.08-.06-.16-.11-.16-.11,0,0-.03-.02-.06-.05-.03-.02-.06-.05-.06-.05l-.19-.15c-.03-.08-.04-.21-.05-.29.08-.03.23-.12.24-.32,0-.09-.04-.22-.09-.34-.05-.12-.1-.23-.12-.27-.07.09-.33.44-.34.64,0,.11.04.18.09.22.05.05.11.07.15.08,0,.05,0,.11-.01.16,0,0-.03-.03-.08-.07-.05-.04-.1-.1-.17-.16-.03-.03-.06-.06-.09-.08-.03-.03-.05-.05-.07-.08-.04-.04-.07-.07-.07-.07h0s-.04-.04-.08-.09c-.04-.05-.08-.09-.08-.09-.01-.08-.01-.21,0-.3.08-.02.25-.08.29-.28,0-.04,0-.1,0-.15,0-.06-.02-.12-.03-.18-.01-.07-.03-.13-.05-.18-.02-.05-.03-.1-.03-.12-.09.08-.4.38-.44.57,0,.04-.01.08,0,.12,0,.03.01.06.03.09.01.02.03.05.05.06.04.03.08.06.11.07-.01.05-.03.1-.04.16,0,0-.06-.08-.12-.16-.06-.08-.12-.16-.12-.16l-.13.1.03.05s-.07,0-.1,0c-.02,0-.05,0-.07,0,0-.04-.02-.11-.06-.17-.04-.06-.1-.12-.21-.14-.2-.04-.61.09-.73.13.02.02.06.07.11.11.05.05.11.1.17.15.12.1.27.19.37.2.01,0,.02,0,.03,0,.19.01.28-.13.31-.21.08.02.22.04.3.07,0,0,.02.03.06.07.03.04.08.1.13.16.05.06.1.11.13.15.04.04.06.07.06.07h0s.06.06.11.12c.03.03.06.06.08.08.02.02.04.04.04.04-.06.01-.12.02-.17.02-.01-.04-.04-.1-.09-.16-.05-.05-.12-.09-.23-.1-.19,0-.59.19-.7.24.05.04.18.13.32.21.14.08.29.14.4.14.22,0,.29-.17.31-.26.09,0,.22,0,.31.03,0,0,.02.02.06.05.03.03.08.07.13.11.05.04.09.08.13.11.04.03.06.05.06.05h0s.05.04.11.08c.03.02.05.04.07.06.02.02.03.02.03.02l.05.04s-.06.02-.1.03c-.02,0-.05.01-.07.02-.02-.04-.05-.1-.11-.14-.06-.05-.14-.08-.25-.07-.19.02-.56.27-.65.34.06.03.19.11.34.16.15.05.31.1.41.08.01,0,.02,0,.03,0,.19-.05.22-.21.23-.29.09-.01.22-.02.3-.02,0,0,.12.08.25.16.13.07.26.15.26.15h0s.02.01.05.03c.03.01.06.03.1.05.07.04.15.08.15.08-.05.03-.11.05-.15.07-.02-.03-.07-.08-.13-.12-.06-.04-.14-.06-.25-.03-.19.06-.5.36-.59.45.03.01.08.03.15.05.07.02.14.04.22.05.16.04.32.04.42.01.21-.07.22-.25.21-.34.08-.02.22-.06.3-.07,0,0,.03.01.07.03.04.02.1.04.15.06.11.04.22.09.22.09,0,0,.02,0,.04.01.02,0,.06.02.09.03.06.02.13.04.13.04l.06.02s-.05.04-.08.06c-.02.01-.04.03-.06.04-.03-.03-.08-.07-.15-.1-.07-.02-.15-.03-.25.01-.18.08-.45.43-.51.53.13.04.61.09.79,0,.01,0,.02-.01.03-.02.16-.1.15-.27.13-.35.08-.03.2-.09.28-.12,0,0,.04,0,.09.02.05.02.12.03.2.05.07.02.14.03.2.05.05,0,.09.02.09.02.19.04.49.07.75.08.02,0,.03,0,.05.02-.89.29-1.13.85-1.13.85h.38c.11-.32.66-.59,1.07-.74.41.15.96.42,1.07.74h.38s-.23-.56-1.13-.85c0,0,.02,0,.02,0,.28-.02.72-.06,1.02-.14,0,0,0,0,0,0,.03,0,.06-.01.08-.02.07-.02.14-.03.2-.05.05-.02.09-.03.09-.03.08.02.2.08.28.11-.02.08-.03.25.13.35,0,0,.02.01.03.02.18.09.67.03.8,0-.07-.1-.34-.45-.52-.53-.1-.04-.18-.03-.25-.01-.07.02-.12.07-.15.1-.02-.01-.04-.02-.06-.04-.03-.02-.05-.04-.08-.06l.06-.02s.06-.02.13-.04c.03-.01.06-.02.09-.03.02,0,.04-.02.04-.02h0s.11-.04.22-.09c.06-.02.11-.05.15-.07.04-.02.07-.03.07-.03.08,0,.21.05.3.07,0,.09,0,.27.22.34.1.03.26.02.42-.01.08-.02.15-.04.22-.05.06-.02.12-.04.15-.05-.08-.09-.4-.39-.59-.45-.11-.03-.19,0-.25.03-.06.03-.11.08-.13.12-.04-.02-.1-.04-.15-.07,0,0,.07-.04.15-.08.04-.02.07-.04.1-.05.03-.02.05-.03.05-.03h0s.13-.07.26-.15c.12-.08.25-.16.25-.16.08,0,.22,0,.3.02,0,.08.05.24.23.29.01,0,.02,0,.03,0,.1.02.26-.03.41-.08.15-.06.29-.13.34-.16-.1-.07-.46-.32-.65-.34-.11-.01-.19.02-.25.07-.06.05-.09.1-.11.14-.02,0-.04-.01-.07-.02-.03,0-.06-.02-.1-.03l.05-.04s.01-.01.03-.02c.02-.01.05-.03.07-.06.05-.04.11-.08.11-.08h0s.02-.02.06-.05c.04-.03.08-.07.13-.11.05-.04.09-.08.13-.11.03-.03.06-.05.06-.05.08-.02.22-.02.3-.03.02.08.09.25.31.25.1,0,.25-.07.4-.14.14-.08.26-.17.31-.21-.1-.05-.5-.25-.7-.24-.11,0-.18.05-.23.1-.05.05-.08.12-.09.16-.05,0-.11-.01-.17-.02,0,0,.01-.01.04-.04.02-.02.05-.05.08-.08.06-.06.11-.12.11-.12,0,0,.03-.03.06-.07.04-.04.08-.1.13-.15.05-.06.1-.11.13-.16.03-.04.06-.07.06-.07.08-.03.21-.05.3-.08.03.07.12.22.31.2.01,0,.02,0,.03,0,.1-.02.24-.1.37-.21.06-.05.12-.1.17-.15.05-.05.08-.09.11-.11-.11-.04-.53-.16-.73-.13-.11.02-.17.08-.21.14-.04.06-.06.13-.06.17-.02,0-.04,0-.07,0-.03,0-.07,0-.1,0l.04-.05-.14-.1s-.06.08-.12.16Z"/>
        <path class="cls-3" d="M151.94,51.84c.03-.12.05-.23.05-.23.05-.06.16-.15.23-.2.07.05.22.15.4.02.09-.06.17-.2.24-.35.07-.15.11-.29.13-.36-.12.02-.55.09-.7.21-.17.14-.13.32-.11.4-.04.02-.1.06-.15.08,0,0,.02-.08.03-.16.01-.08.02-.16.02-.16,0,0,0-.04.01-.09,0-.05.01-.13.02-.2,0-.07.01-.15.02-.2,0-.06,0-.09,0-.09.05-.07.14-.17.2-.24.07.04.22.11.37-.02,0,0,.02-.01.02-.02.07-.07.13-.23.18-.38.04-.15.06-.31.07-.37-.11.04-.53.18-.66.32-.07.08-.09.16-.09.24,0,.07.03.13.05.17-.02.01-.03.03-.05.04-.03.02-.05.04-.08.06v-.06s0-.27,0-.27h0s0-.03,0-.08c0-.04,0-.1-.01-.16,0-.06,0-.12-.01-.17,0-.05,0-.08,0-.08.03-.08.11-.19.16-.26.08.03.26.08.39-.1.06-.08.1-.24.12-.4.02-.16.02-.31.01-.38-.11.05-.5.26-.61.42-.06.09-.07.18-.05.25.01.07.05.13.07.16-.03.04-.07.08-.12.12,0,0,0-.08-.03-.16-.01-.08-.03-.16-.03-.16,0,0,0-.04-.02-.09-.01-.05-.03-.13-.05-.2-.02-.07-.03-.14-.05-.2-.02-.05-.03-.09-.03-.09.02-.08.08-.2.11-.28.08.02.25.03.35-.13,0,0,.01-.02.02-.03.09-.18.03-.67,0-.79-.1.07-.45.33-.53.51-.05.1-.04.18-.01.25.02.07.07.12.1.15-.01.02-.02.04-.04.06-.02.03-.04.05-.06.08l-.02-.06s-.02-.06-.04-.13c-.01-.03-.02-.06-.03-.09,0-.02-.01-.04-.01-.04,0,0-.04-.11-.09-.22-.02-.06-.05-.11-.06-.15-.02-.04-.03-.07-.03-.07,0-.08.05-.21.07-.3.09,0,.27,0,.34-.21.03-.1.02-.26-.01-.42-.02-.08-.04-.15-.05-.22-.02-.06-.04-.12-.05-.15-.08.08-.39.4-.45.59-.03.11,0,.19.03.25.03.06.08.11.12.13-.02.04-.04.1-.07.15,0,0-.04-.07-.08-.15-.02-.04-.04-.07-.05-.1-.02-.03-.03-.04-.03-.04h0s-.07-.13-.15-.26c-.08-.12-.16-.25-.16-.25,0-.08,0-.22.02-.31.08,0,.24-.05.29-.23,0-.01,0-.02,0-.03.02-.1-.03-.26-.08-.41-.06-.15-.13-.28-.16-.34-.07.1-.32.46-.34.65-.01.11.02.19.07.25.05.06.1.09.14.11,0,.02-.01.04-.02.07,0,.03-.02.06-.03.1l-.04-.05s0-.01-.02-.03c-.01-.02-.03-.05-.06-.07-.04-.05-.08-.11-.08-.11,0,0-.02-.02-.05-.06-.03-.04-.07-.08-.11-.13-.04-.05-.08-.09-.11-.13-.03-.03-.05-.06-.05-.06-.02-.08-.02-.22-.03-.3.08-.02.25-.09.26-.31,0-.1-.07-.25-.14-.4-.08-.14-.17-.26-.21-.32-.05.1-.25.5-.24.7,0,.11.05.18.1.23.05.05.12.07.16.09,0,.05-.01.11-.02.17,0,0-.01-.02-.04-.04-.02-.02-.05-.05-.08-.08-.06-.06-.12-.11-.12-.11h0s-.03-.03-.07-.06c-.04-.04-.1-.09-.15-.13-.06-.05-.11-.1-.16-.13-.04-.03-.07-.06-.07-.06-.03-.08-.05-.21-.07-.3.07-.03.22-.12.2-.31,0-.01,0-.02,0-.03-.02-.1-.1-.24-.2-.37-.05-.06-.1-.12-.15-.17-.05-.05-.09-.08-.11-.11-.04.11-.16.53-.13.73.02.11.08.17.14.21.06.04.12.06.17.06,0,.02,0,.04,0,.07,0,.03,0,.07,0,.1l-.05-.03s-.06-.04-.11-.08c-.03-.02-.06-.04-.08-.05-.02-.01-.04-.02-.04-.02,0,0-.1-.06-.2-.13-.05-.03-.1-.06-.14-.08-.04-.02-.07-.04-.07-.04-.02-.04-.04-.09-.06-.14-.02-.05-.04-.1-.06-.14.07-.05.21-.16.15-.37-.03-.1-.14-.23-.26-.33-.06-.05-.12-.11-.17-.15-.05-.04-.1-.07-.13-.09-.01.06-.03.2-.04.34,0,.15,0,.3.02.39.04.1.1.16.17.19.06.03.13.04.17.04.01.05.02.11.03.16,0,0-.31-.1-.39-.14-.05-.02-.18-.07-.32-.13.01-.07.02-.28-.2-.37-.18-.07-.61,0-.73.02.07.1.33.45.51.52.19.08.32-.04.38-.1.29.15.62.33.67.35.07.04.14.08.2.11.05.03.09.05.09.05-.05.02-.11.05-.15.06-.02-.03-.06-.08-.12-.12-.06-.03-.14-.05-.24,0-.18.06-.44.43-.5.52.02,0,.07,0,.12.01.05,0,.11.01.18.02.13,0,.26.01.35-.02.19-.07.23-.24.23-.33.08-.02.21-.05.29-.04,0,0,.05.03.1.06,0,0,0,0,.01,0h0s0,0,0,0c.02.01.04.03.05.04.02.01.03.02.03.02h0s.13.09.13.09c0,0,.08.06.16.12.08.06.16.12.16.12-.06.02-.12.03-.16.04-.01-.03-.03-.07-.07-.11-.02-.02-.04-.04-.06-.05-.03-.01-.05-.02-.09-.03-.03,0-.07,0-.12,0-.19.04-.49.36-.57.44.02,0,.07.02.12.03.05.02.12.03.18.05.06.01.12.02.18.03.06,0,.11,0,.15,0,.2-.04.26-.2.28-.29.09-.01.21-.01.3,0,0,0,.05.04.09.08.04.04.09.08.09.08,0,0,.03.03.08.07.02.02.05.05.08.07.03.03.06.06.08.09.06.06.12.12.16.17.04.05.07.08.07.08-.06,0-.12,0-.16.01,0-.04-.03-.1-.08-.15-.05-.05-.12-.09-.22-.09-.19.01-.55.27-.64.34.04.02.15.07.27.12.12.05.25.09.34.09.2,0,.29-.16.32-.24.08,0,.22.02.29.05l.15.19h0s.02.03.05.06c.02.03.05.06.05.06,0,0,.06.08.11.16.03.04.05.08.07.11.02.03.03.05.03.05-.06,0-.12,0-.17-.01,0-.06-.04-.18-.15-.25-.03-.02-.07-.03-.11-.03-.19-.02-.58.19-.68.25.02.02.06.04.1.07.05.03.1.06.16.1.1.06.22.12.31.13.2.02.31-.11.35-.19.08.02.21.05.28.09l.12.21s.02.04.05.09c.03.05.07.13.1.2.04.07.07.15.09.21.03.06.04.09.04.09-.06-.01-.12-.03-.16-.04,0-.04,0-.1-.03-.17-.03-.06-.09-.12-.19-.15-.18-.05-.6.09-.71.13.08.07.34.33.52.39.2.05.33-.06.38-.13.08.03.2.09.26.14,0,0,.02.06.04.11.01.03.02.06.03.08,0,.02.01.04.01.04h0s.05.15.05.15c0,0,0,.02.02.06.01.03.02.08.04.13.03.1.05.19.05.19-.06-.02-.11-.04-.16-.06,0-.03.01-.08,0-.13,0-.05-.03-.11-.08-.15-.02-.02-.06-.05-.1-.06-.09-.04-.24-.04-.38-.03-.15.01-.28.04-.34.05.03.04.11.14.2.24.04.04.08.09.13.13.04.04.09.07.13.09.19.08.33-.01.39-.07.08.04.18.12.24.17,0,0,.01.06.03.12,0,.03.01.06.02.08,0,.02,0,.04,0,.04h0s0,.04.02.1c.01.06.03.14.04.22.01.08.02.16.03.23,0,.06,0,.1,0,.1-.05-.03-.1-.06-.14-.09.01-.04.03-.1.02-.17,0-.07-.04-.14-.13-.2-.16-.11-.6-.1-.72-.1.02.05.08.15.15.26.06.11.14.22.22.27.16.11.33.04.4,0,.06.05.16.14.21.21,0,0,0,.06,0,.12,0,.06,0,.12,0,.12v.16s0,.1,0,.2c0,.05,0,.1,0,.14,0,.04,0,.06,0,.06-.05-.04-.09-.08-.13-.11.03-.05.08-.17.02-.29-.02-.03-.04-.06-.07-.09-.14-.13-.58-.19-.69-.2.02.05.06.17.11.29.05.11.11.23.17.29.15.14.32.09.4.06.06.06.14.17.17.24,0,0,0,.01,0,.04,0,.02,0,.05,0,.08,0,.06-.02.12-.02.12h0s0,.04-.01.1c0,.06-.02.14-.04.22-.02.08-.03.16-.04.22-.01.06-.02.1-.02.1-.04-.04-.08-.09-.11-.13.05-.06.14-.22.01-.38-.12-.15-.54-.28-.65-.31,0,.05.03.17.06.29.03.12.07.26.13.33.12.16.3.14.38.12.04.07.11.19.14.27l-.07.23s-.01.04-.02.08c-.01.04-.02.07-.02.07,0,0-.03.09-.06.19-.01.05-.03.09-.05.13-.01.03-.02.06-.02.06-.03-.05-.06-.1-.09-.14.05-.04.13-.14.11-.27,0-.03-.02-.07-.04-.11-.1-.17-.49-.36-.6-.4,0,.03,0,.07,0,.12,0,.05,0,.12.01.19.01.12.04.25.08.33.1.17.27.18.36.17.03.08.08.2.09.28l-.1.22h0s0,0-.01.03c0,.02-.02.04-.03.07-.03.06-.07.13-.1.2-.04.07-.08.14-.11.2-.03.05-.05.09-.05.09-.02-.05-.05-.11-.06-.15.03-.02.08-.06.12-.12.03-.06.05-.14,0-.24-.07-.18-.43-.44-.52-.5,0,.02,0,.07-.01.12,0,.05-.01.11-.02.18,0,.13-.01.26.02.35.07.19.24.23.33.23.02.08.05.21.04.29,0,0-.03.05-.06.1-.02.03-.03.05-.05.07-.01.02-.02.03-.02.03h0s-.09.13-.09.13l.14.1s.04-.06.08-.11c.02-.03.04-.06.05-.08.01-.02.02-.04.02-.04h0s.06-.1.13-.2c.03-.05.06-.1.08-.14.02-.04.04-.07.04-.07.04-.02.09-.04.14-.06.05-.02.1-.04.14-.06.05.07.16.21.37.15.1-.03.23-.14.33-.26.05-.06.11-.12.15-.17.04-.05.07-.1.09-.13-.06,0-.2-.03-.34-.04-.15,0-.3,0-.39.02-.1.04-.16.1-.19.17-.03.06-.04.13-.04.17-.05.01-.11.02-.16.03,0,0,.04-.07.08-.15.02-.04.04-.07.05-.1.01-.03.02-.05.02-.05h0s.02-.03.04-.08c.02-.05.05-.12.08-.19.05-.14.11-.28.11-.28.06-.05.18-.12.26-.16.05.06.18.17.36.1,0,0,.02,0,.03-.01.09-.05.19-.18.28-.31.09-.13.15-.27.18-.33-.12,0-.56,0-.73.11-.09.06-.14.13-.16.2-.02.07-.01.14,0,.18-.02,0-.04.02-.06.03-.03.01-.06.02-.09.03l.02-.06s0-.02.01-.04c0-.02.02-.06.03-.09.02-.07.04-.13.04-.13h0s0-.03.02-.07c.01-.04.03-.1.04-.16Z"/>
      </g>
      <g>
        <path class="cls-4" d="M7.98,7.2l-4.24,4.26,1.16,1.16,2.2-2.2h14.56l6.68,6.7v10.92H5.01L.41,23.42v-5.8h4.37l3.2,3.2h13.17v-.71l-2.46-2.48H7.09L.41,10.9v-6.3L5.01,0h23.32v7.2H7.98Z"/>
        <path class="cls-4" d="M52.16,17.62h-13.56v10.42h-7.18V9.53L40.92,0h13.85l4.58,4.6v6.3l-3.1,3.12,3.1,3.1v10.92h-7.18v-10.42ZM40.7,10.42h11.96l2.19,2.2,1.16-1.16-4.24-4.26h-7.88c-2.14,2.14-1.08,1.06-3.2,3.22Z"/>
        <path class="cls-4" d="M70,7.2l-4.24,4.26,1.16,1.16,2.2-2.2h.5v10.4h20.74v7.22h-23.32l-4.6-4.62v-6.3l3.1-3.1-3.1-3.12v-6.3l4.6-4.6h23.32v10.42h-7.18v-3.22h-13.17Z"/>
        <path class="cls-1" d="M103.09,17.62l-2.46,2.48v7.93h-7.18v-10.92l3.1-3.1-3.1-3.12v-6.3l4.6-4.6h23.32v10.49l-6.43,6.47c4.29,4.31,2.14,2.16,6.43,6.45v4.62h-5.56l-10.36-10.42h-2.35ZM100.12,10.42h11.19l3.2-3.22h-13.5c-2.83,2.83-1.42,1.42-4.24,4.26l1.16,1.16,2.2-2.2Z"/>
        <path class="cls-1" d="M145.19,17.62h-13.56v10.42h-7.18V9.53l9.49-9.53h13.85l4.58,4.6v6.3l-3.1,3.12,3.1,3.1v10.92h-7.18v-10.42ZM133.73,10.42h11.96l2.2,2.2,1.16-1.16-4.24-4.26h-7.88c-2.14,2.14-1.08,1.06-3.2,3.22Z"/>
        <path class="cls-1" d="M176.2,15.5V0h7.18v18.49l-9.49,9.55h-13.83l-4.6-4.62v-6.3l3.1-3.1-3.1-3.12V0h7.18v17.62h-.5l-2.2-2.21-1.16,1.17,4.24,4.24h7.88l5.3-5.31Z"/>
        <path class="cls-1" d="M196.12,17.62l-2.46,2.48v.71h18.16l2.58,2.6v4.62h-23.32l-4.6-4.62v-6.3l3.1-3.1c-2.06-2.08-1.04-1.04-3.1-3.12v-6.3l4.6-4.6h23.32v4.6l-2.58,2.6h-17.77c-2.83,2.83-1.41,1.42-4.24,4.26l1.16,1.16,2.2-2.2h21.24v7.2h-18.27Z"/>
        <path class="cls-1" d="M225.05,7.2l-4.24,4.26,1.16,1.16,2.2-2.2h14.56l6.68,6.7v10.92h-23.32l-4.6-4.62v-5.8h4.37l3.2,3.2h13.17v-.71l-2.46-2.48h-11.59l-6.68-6.72v-6.3l4.6-4.6h23.32v7.2h-20.35Z"/>
      </g>
      <g>
        <path class="cls-1" d="M12.81,48.1h-2.47c0,1.72-.17,3.08-.52,4.06-.35.98-.98,1.78-1.9,2.38-.92.6-2.28,1.1-4.08,1.49l-.56-.8c1.32-.27,2.43-.62,3.34-1.04.9-.42,1.59-1.04,2.04-1.87.46-.82.69-2.23.69-4.22H3.33v3.09h-.94v-3.09H.04v-.91h2.35v-3.34h.94v3.34h6.03v-3.39h.98v3.39h2.47v.91Z"/>
        <path class="cls-1" d="M25.87,44.61c-.43,2.84-1.28,5.14-2.56,6.9s-3.22,3.32-5.85,4.67l-.91-.67c2.52-1.22,4.41-2.59,5.66-4.1,1.25-1.52,2.09-3.47,2.52-5.85h-6.49c-.43.69-.85,1.27-1.25,1.74s-.97,1.01-1.69,1.64l-.7-.59c1.55-1.22,2.55-2.46,3.02-3.73h8.25Z"/>
        <path class="cls-1" d="M40.44,48.25c-.68,2.31-1.59,4.01-2.71,5.12-1.12,1.11-3.05,1.98-5.78,2.63l-.55-.86c2.3-.45,4.02-1.12,5.17-2,1.15-.88,2.02-2.21,2.6-3.99h-10.53v-.9h11.79ZM39.32,45.4h-9.75v-.9h9.75v.9Z"/>
        <path class="cls-1" d="M54.32,54.68l-.84.6c-2.7-4.25-5.06-7.44-7.07-9.57-1.04,1.42-2,2.91-2.88,4.44l-.83-.53c1.26-1.94,2.47-3.67,3.64-5.2,2.04,1.96,4.7,5.38,7.98,10.26ZM53.28,46.22l-.74.27c-.23-.75-.51-1.51-.84-2.29l.79-.21c.33.74.6,1.49.8,2.23ZM54.65,45.95l-.84.28c-.2-.82-.49-1.58-.87-2.29l.79-.23c.35.64.66,1.38.93,2.24Z"/>
        <path class="cls-1" d="M68.31,55.41l-.87.6c-1.24-1.59-2.62-3.05-4.15-4.36-1.32,1.55-3.15,3-5.5,4.37l-.67-.76c2.34-1.27,4.21-2.73,5.62-4.41,1.4-1.67,2.28-3.47,2.64-5.39h-7.93v-.94h9.11c-.45,2.5-1.36,4.65-2.73,6.44,1.61,1.34,3.11,2.82,4.48,4.44Z"/>
      </g>
      <g>
        <path class="cls-1" d="M99.96,44.57l2.02,2.02c.09.09.14.21.14.35v.71c0,.15-.05.27-.14.36l-6.01,6.01h5.65c.15,0,.27.05.36.14s.14.22.14.36v1.01c0,.15-.05.27-.14.36s-.22.14-.36.14h-8.6c-.16,0-.27-.04-.35-.13-.07-.09-.12-.2-.15-.32-.03-.13-.03-.26-.02-.4.01-.14.02-.26.02-.36,0-.14.05-.26.16-.36l7.16-7.16-.85-.87h-5.46c-.14,0-.26-.05-.36-.14-.1-.1-.15-.22-.15-.36v-1.01c0-.14.05-.26.15-.36.1-.1.22-.15.36-.15h6.07c.14,0,.26.05.36.16Z"/>
        <path class="cls-1" d="M110.22,44.57l1.69,1.69c.11.11.16.23.16.36v2.4c0,.15-.05.27-.16.36l-.71.71.96.96c.11.11.16.23.16.36v2.4c0,.15-.05.27-.16.36l-1.69,1.71c-.12.09-.24.14-.36.14h-5.19c-.15,0-.27-.05-.36-.14l-1.71-1.71c-.1-.11-.14-.23-.14-.36s.05-.25.14-.35l.73-.73c.1-.09.21-.14.35-.14.15,0,.27.05.36.14l1.27,1.27h3.92l.82-.81v-.9l-1.08-1.08h-1.46c-.15,0-.27-.05-.36-.14s-.14-.22-.14-.36v-1.01c0-.15.05-.27.14-.36.09-.09.22-.14.36-.14h1.46l.82-.81v-1.16l-.82-.82h-3.42l-1.27,1.27c-.09.09-.22.14-.36.14-.14,0-.25-.05-.35-.14l-.73-.71c-.1-.11-.14-.23-.14-.36s.05-.26.14-.36l1.71-1.69c.09-.11.22-.16.36-.16h4.68c.14,0,.26.05.36.16Z"/>
        <path class="cls-1" d="M120.96,44.57l1.91,1.91c.1.11.16.23.16.36v6.77c0,.14-.05.26-.16.36l-1.91,1.93c-.1.09-.22.14-.36.14h-4.68c-.15,0-.27-.05-.36-.14l-1.93-1.93c-.09-.09-.14-.22-.14-.36v-6.77c0-.15.05-.27.14-.36l1.93-1.91c.11-.11.23-.16.36-.16h4.68c.14,0,.26.05.36.16ZM119.96,54.03l1.04-1.03v-5.52l-1.04-1.04h-3.43l-1.03,1.04v5.52l1.03,1.03h3.43Z"/>
        <path class="cls-1" d="M134.09,44.57c.1.1.15.22.15.36v1.01c0,.15-.05.27-.15.36-.1.09-.22.14-.36.14h-7.09v2.78h7.09c.14,0,.25.05.36.15s.15.22.15.36v4.11c0,.14-.05.26-.16.36l-1.69,1.71c-.09.09-.22.14-.36.14h-6.9c-.15,0-.27-.05-.36-.14-.1-.09-.14-.22-.14-.36v-1.01c0-.15.05-.27.14-.36.09-.09.22-.14.36-.14h6.26l.82-.81v-1.98h-7.09c-.15,0-.27-.05-.36-.14-.1-.09-.14-.22-.14-.36v-5.82c0-.14.05-.26.14-.36.09-.1.22-.15.36-.15h8.6c.14,0,.25.05.36.15Z"/>
      </g>
      <g>
        <path class="cls-1" d="M250.67,16.66v1.79h1.72v.46h-1.72v1.8h-.49v-1.8h-1.72v-.46h1.72v-1.79h.49Z"/>
        <path class="cls-1" d="M255.21,16.66v1.79h1.72v.46h-1.72v1.8h-.49v-1.8h-1.72v-.46h1.72v-1.79h.49Z"/>
        <path class="cls-1" d="M259.74,16.66v1.79h1.72v.46h-1.72v1.8h-.49v-1.8h-1.72v-.46h1.72v-1.79h.49Z"/>
      </g>
      <g>
        <path class="cls-1" d="M155.94,44.99h1.52c.44,0,.71.29.71.65,0,.43-.3.65-.71.65h-1.09v.83h-.43v-2.13ZM157.38,45.94c.25,0,.36-.08.36-.29s-.11-.29-.36-.29h-1.01v.59h1.01Z"/>
        <path class="cls-1" d="M158.52,44.99h2.05v.36h-1.62v.46h1.44v.33h-1.44v.6h1.62v.36h-2.05v-2.13Z"/>
        <path class="cls-1" d="M162.2,44.99h.52l1.3,2.13h-.5l-.26-.45h-1.59l-.26.45h-.5l1.29-2.13ZM163.05,46.31l-.58-1.01-.59,1.01h1.17Z"/>
        <path class="cls-1" d="M163.99,46.06c0-.67.51-1.11,1.28-1.11s1.28.39,1.28.97h-.44c-.02-.38-.36-.61-.84-.61s-.85.29-.85.75.34.75.85.75.83-.23.84-.61h.44c0,.59-.51.97-1.28.97s-1.28-.44-1.28-1.11Z"/>
        <path class="cls-1" d="M166.92,44.99h2.05v.36h-1.62v.46h1.44v.33h-1.44v.6h1.62v.36h-2.05v-2.13Z"/>
        <path class="cls-1" d="M155.94,47.89h.43v1.76h1.48v.36h-1.91v-2.13Z"/>
        <path class="cls-1" d="M157.93,48.95c0-.67.51-1.11,1.28-1.11s1.28.44,1.28,1.11-.51,1.11-1.28,1.11-1.28-.44-1.28-1.11ZM160.06,48.95c0-.46-.34-.75-.85-.75s-.85.29-.85.75.34.75.85.75.85-.29.85-.75Z"/>
        <path class="cls-1" d="M163.43,47.89l-1.19,2.13h-.61l-1.19-2.13h.52l.97,1.81.98-1.81h.52Z"/>
        <path class="cls-1" d="M163.69,47.89h2.05v.36h-1.62v.46h1.44v.33h-1.44v.6h1.62v.36h-2.05v-2.13Z"/>
        <path class="cls-1" d="M155.94,51.78v-1h.43v1.09c0,.49.22.72.68.72s.68-.23.68-.72v-1.09h.43v1c0,.91-.42,1.18-1.11,1.18s-1.11-.27-1.11-1.18Z"/>
        <path class="cls-1" d="M158.6,50.79h.39l1.59,1.53v-1.53h.43v2.13h-.4l-1.59-1.53v1.53h-.43v-2.13Z"/>
        <path class="cls-1" d="M161.5,50.79h.43v2.13h-.43v-2.13Z"/>
        <path class="cls-1" d="M163.12,51.15h-.94v-.36h2.32v.36h-.94v1.76h-.43v-1.76Z"/>
        <path class="cls-1" d="M165.74,52.23l-1.13-1.44h.53l.82,1.06.81-1.06h.53l-1.13,1.44v.69h-.43v-.69Z"/>
        <path class="cls-1" d="M155.94,53.69h1.67c.44,0,.68.24.68.56s-.28.53-.68.53h-.22c.5.04.71.34,1.07,1.03h-.5c-.39-.71-.5-.9-.88-.9h-.71v.9s-.43,0-.43,0v-2.13ZM157.5,54.56c.25,0,.36-.09.36-.25,0-.19-.11-.27-.36-.27h-1.14v.52h1.14Z"/>
        <path class="cls-1" d="M158.7,53.69h2.05v.36h-1.62v.46h1.44v.33h-1.44v.6h1.62v.36h-2.05v-2.13Z"/>
        <path class="cls-1" d="M161.05,55.13h.45c0,.22.27.37.71.37.5,0,.78-.09.78-.29,0-.57-1.88.09-1.88-.9,0-.43.46-.67,1.12-.67.69,0,1.15.29,1.15.73h-.44c0-.22-.27-.37-.7-.37s-.69.09-.69.27c0,.53,1.88-.09,1.88.91,0,.44-.47.67-1.19.67s-1.18-.3-1.18-.73Z"/>
        <path class="cls-1" d="M163.77,53.69h1.52c.44,0,.71.29.71.65,0,.43-.3.65-.71.65h-1.09v.83h-.43v-2.13ZM165.21,54.63c.25,0,.36-.08.36-.29s-.11-.29-.36-.29h-1.01v.59h1.01Z"/>
        <path class="cls-1" d="M166.35,53.69h2.05v.36h-1.62v.46h1.44v.33h-1.44v.6h1.62v.36h-2.05v-2.13Z"/>
        <path class="cls-1" d="M168.73,54.75c0-.67.51-1.11,1.28-1.11s1.28.39,1.28.97h-.44c-.02-.38-.36-.61-.84-.61s-.85.29-.85.75.34.75.85.75.83-.23.84-.61h.44c0,.59-.51.97-1.28.97s-1.28-.44-1.28-1.11Z"/>
        <path class="cls-1" d="M172.23,54.05h-.94v-.36h2.32v.36h-.94v1.76h-.43v-1.76Z"/>
      </g>
      <path class="cls-4" d="M76.69,43.76c-3.43,0-6.21,2.78-6.21,6.21s2.78,6.21,6.21,6.21,6.21-2.78,6.21-6.21-2.78-6.21-6.21-6.21ZM76.69,55.38c-2.99,0-5.41-2.42-5.41-5.41s2.42-5.41,5.41-5.41,5.41,2.42,5.41,5.41-2.42,5.41-5.41,5.41Z"/>
      <path class="cls-4" d="M83.26,43.76c-3.43,0-6.21,2.78-6.21,6.21s2.78,6.21,6.21,6.21,6.21-2.78,6.21-6.21-2.78-6.21-6.21-6.21ZM83.26,55.38c-2.99,0-5.41-2.42-5.41-5.41s2.42-5.41,5.41-5.41,5.41,2.42,5.41,5.41-2.42,5.41-5.41,5.41Z"/>
      <rect class="cls-4" y="33.52" width="245.3" height="1.99"/>
      <rect class="cls-1" y="37.5" width="245.3" height="1.99"/>
      <path class="cls-2" d="M233.4,45.11l1.63,5.06c.02.06.05.12.09.16.04.04.09.07.15.07.13,0,.22-.08.26-.24l1.61-5.05h1.61s-1.77,5.7-1.77,5.7c-.12.37-.34.65-.65.85-.32.2-.68.3-1.08.3-.73,0-1.26-.32-1.58-.97l-.06-.12-1.33-4.22-.05-.1h-3.5c-.17,0-.31.06-.43.19-.11.13-.17.28-.17.46,0,.15.04.28.13.38.08.1.19.16.32.16h2.18c.51,0,.94.22,1.29.66.32.41.48.89.48,1.45s-.16,1.05-.48,1.41c-.35.39-.86.59-1.51.59h-3.61v-1.43h3.54c.16,0,.3-.07.39-.21.1-.14.15-.3.15-.48,0-.16-.05-.29-.14-.41-.09-.11-.21-.17-.36-.17h-1.89c-.56,0-1.03-.18-1.42-.53-.38-.35-.57-.82-.57-1.41s.16-1.05.49-1.45c.35-.43.78-.64,1.3-.64h4.98ZM243.79,50.09c0,.09-.02.17-.07.24-.04.07-.1.12-.18.13-.09.02-.17,0-.23-.06-.07-.06-.12-.13-.14-.22l-.08-.25-1.11-3.88c-.11-.38-.35-.67-.71-.86-.31-.16-.7-.25-1.16-.25-.53,0-.92.15-1.19.46-.27.3-.4.74-.4,1.3v5.11h1.52v-5.17c0-.12.07-.2.2-.22.08-.02.15,0,.21.06.06.06.1.12.13.21l.15.46.97,3.41c.12.43.35.77.69,1.02.34.25.74.38,1.19.38.55,0,.95-.1,1.21-.31.34-.27.51-.74.51-1.4v-5.13h-1.5v4.97h0ZM225.17,50.84c-.11.37-.32.65-.62.83-.3.19-.66.28-1.07.28s-.75-.09-1.05-.28c-.3-.19-.5-.46-.61-.82l-1.8-5.75h1.51l1.74,5.16c.04.11.1.17.2.17.09,0,.16-.06.19-.17l1.7-5.16h1.59l-1.78,5.73h0Z"/>
      <path class="cls-1" d="M261.97,7.19c0,4.07-3.2,7.27-7.36,7.27s-7.4-3.2-7.4-7.27,3.29-7.19,7.4-7.19,7.36,3.2,7.36,7.19ZM249.04,7.19c0,3.2,2.37,5.74,5.61,5.74s5.48-2.54,5.48-5.69-2.32-5.78-5.52-5.78-5.56,2.59-5.56,5.74ZM253.47,10.95h-1.66V3.77c.66-.13,1.58-.22,2.76-.22,1.36,0,1.97.22,2.5.52.39.31.7.88.7,1.58,0,.79-.61,1.4-1.49,1.67v.09c.7.26,1.1.79,1.31,1.75.22,1.09.35,1.53.53,1.8h-1.8c-.22-.26-.35-.92-.57-1.75-.13-.79-.57-1.14-1.49-1.14h-.79v2.89ZM253.51,6.88h.79c.92,0,1.67-.31,1.67-1.05,0-.66-.48-1.1-1.53-1.1-.44,0-.74.05-.92.09v2.06Z"/>
    </g>
  </g>
</svg>